<svg xmlns="http://www.w3.org/2000/svg" width="21" height="21" viewBox="0 0 21 21" fill="none"><path fill-rule="evenodd" clip-rule="evenodd" d="M0 9.33333C0 4.93383 -1.39077e-07 2.7335 1.36733 1.36733C2.7335 -1.39077e-07 4.93383 0 9.33333 0H11.6667C16.0662 0 18.2665 -1.39077e-07 19.6327 1.36733C21 2.7335 21 4.93383 21 9.33333V11.6667C21 16.0662 21 18.2665 19.6327 19.6327C18.2665 21 16.0662 21 11.6667 21H9.33333C4.93383 21 2.7335 21 1.36733 19.6327C-1.39077e-07 18.2665 0 16.0662 0 11.6667V9.33333ZM17.5 5.25C17.5 5.71413 17.3156 6.15925 16.9874 6.48744C16.6592 6.81563 16.2141 7 15.75 7C15.2859 7 14.8408 6.81563 14.5126 6.48744C14.1844 6.15925 14 5.71413 14 5.25C14 4.78587 14.1844 4.34075 14.5126 4.01256C14.8408 3.68437 15.2859 3.5 15.75 3.5C16.2141 3.5 16.6592 3.68437 16.9874 4.01256C17.3156 4.34075 17.5 4.78587 17.5 5.25ZM12.8333 11.6667C12.8333 12.2855 12.5875 12.879 12.1499 13.3166C11.7123 13.7542 11.1188 14 10.5 14C9.88116 14 9.28767 13.7542 8.85008 13.3166C8.4125 12.879 8.16667 12.2855 8.16667 11.6667C8.16667 11.0478 8.4125 10.4543 8.85008 10.0168C9.28767 9.57917 9.88116 9.33333 10.5 9.33333C11.1188 9.33333 11.7123 9.57917 12.1499 10.0168C12.5875 10.4543 12.8333 11.0478 12.8333 11.6667ZM15.1667 11.6667C15.1667 12.9043 14.675 14.0913 13.7998 14.9665C12.9247 15.8417 11.7377 16.3333 10.5 16.3333C9.26232 16.3333 8.07534 15.8417 7.20017 14.9665C6.325 14.0913 5.83333 12.9043 5.83333 11.6667C5.83333 10.429 6.325 9.242 7.20017 8.36683C8.07534 7.49166 9.26232 7 10.5 7C11.7377 7 12.9247 7.49166 13.7998 8.36683C14.675 9.242 15.1667 10.429 15.1667 11.6667Z" fill="url(#paint0_linear_103_549)"></path><defs><linearGradient id="paint0_linear_103_549" x1="10.5" y1="0" x2="10.5" y2="21" gradientUnits="userSpaceOnUse"><stop stop-color="#810BFC"></stop><stop offset="0.28" stop-color="#FC02C6"></stop><stop offset="1" stop-color="#FFC300"></stop></linearGradient></defs></svg>